<svg width="512" height="512" viewBox="0 0 512 512" fill="none" xmlns="http://www.w3.org/2000/svg">
<path d="M35.164 383.5C58.292 423.561 124.696 416.49 169.771 405.206C182.418 449.865 209.559 512 256 512C302.441 512 329.582 449.866 342.229 405.206C387.205 416.465 453.763 423.466 476.836 383.5C499.983 343.409 460.449 289.252 428.259 256C460.501 222.693 499.969 168.566 476.836 128.5C453.709 88.439 387.122 95.556 342.229 106.794C329.583 62.136 302.441 0 256 0C209.559 0 182.418 62.134 169.771 106.794C124.893 95.56 58.294 88.434 35.164 128.5C12.017 168.591 51.55 222.746 83.741 256C51.499 289.306 12.031 343.433 35.164 383.5ZM61.145 368.5C47.024 344.041 85.579 297.226 105.378 276.767C119.978 289.845 136.192 302.708 153.669 315.07C155.628 336.379 158.647 356.861 162.654 376.072C135.12 382.964 75.27 392.968 61.145 368.5ZM218.5 191.048C230.984 183.84 243.525 177.164 256 171.051C268.475 177.163 281.016 183.84 293.5 191.048C305.986 198.256 318.04 205.78 329.572 213.528C330.513 227.394 331 241.593 331 256C331 270.407 330.513 284.606 329.572 298.472C318.04 306.22 305.986 313.744 293.5 320.952C281.016 328.16 268.475 334.836 256 340.949C243.525 334.837 230.984 328.16 218.5 320.952C206.014 313.744 193.96 306.22 182.428 298.472C181.487 284.606 181 270.407 181 256C181 241.593 181.487 227.394 182.428 213.528C193.96 205.78 206.014 198.257 218.5 191.048ZM186.295 175.355C187.749 164.703 189.495 154.357 191.52 144.385C201.175 147.604 211.019 151.258 220.988 155.324C215.149 158.464 209.316 161.709 203.5 165.067C197.676 168.43 191.941 171.864 186.295 175.355ZM291.012 155.324C300.981 151.259 310.825 147.604 320.48 144.385C322.506 154.356 324.251 164.702 325.705 175.355C320.059 171.864 314.324 168.43 308.5 165.068C302.684 161.709 296.85 158.464 291.012 155.324ZM360.695 235.983C369.186 242.573 377.26 249.259 384.864 256C377.26 262.74 369.186 269.427 360.695 276.017C360.894 269.389 361 262.715 361 256C361 249.285 360.894 242.611 360.695 235.983ZM325.705 336.645C324.25 347.297 322.505 357.643 320.48 367.615C310.825 364.396 300.981 360.742 291.012 356.676C296.851 353.536 302.684 350.291 308.5 346.933C314.324 343.57 320.059 340.136 325.705 336.645ZM220.988 356.676C211.019 360.741 201.175 364.396 191.52 367.615C189.494 357.644 187.749 347.298 186.295 336.645C191.941 340.136 197.676 343.57 203.5 346.932C209.316 350.291 215.15 353.536 220.988 356.676ZM151.305 276.017C142.814 269.427 134.74 262.741 127.136 256C134.74 249.26 142.814 242.573 151.305 235.983C151.106 242.611 151 249.285 151 256C151 262.715 151.106 269.389 151.305 276.017ZM256 482C227.659 482 206.313 424.18 198.577 396.858C217.236 390.747 236.519 383.124 256 374.152C275.481 383.124 294.764 390.747 313.423 396.858C305.712 424.092 284.365 482 256 482ZM450.856 368.5C436.73 392.967 376.877 382.963 349.347 376.072C353.354 356.861 356.373 336.379 358.332 315.07C375.809 302.708 392.023 289.844 406.623 276.767C426.397 297.201 464.981 344.033 450.856 368.5ZM450.856 143.5C464.977 167.959 426.422 214.774 406.623 235.233C392.023 222.155 375.809 209.292 358.332 196.93C356.373 175.621 353.354 155.139 349.347 135.928C378.008 128.754 436.871 119.279 450.856 143.5ZM256 30C284.341 30 305.687 87.82 313.423 115.142C294.764 121.253 275.481 128.876 256 137.848C236.519 128.876 217.236 121.253 198.577 115.142C206.288 87.907 227.635 30 256 30ZM61.145 143.5C75.209 119.139 134.4 128.856 162.654 135.928C158.647 155.139 155.628 175.621 153.669 196.93C136.192 209.292 119.978 222.156 105.378 235.233C85.602 214.798 47.019 167.967 61.145 143.5Z" fill="#42BECF"/>
<path d="M256 301C280.813 301 301 280.813 301 256C301 231.187 280.813 211 256 211C231.187 211 211 231.187 211 256C211 280.813 231.187 301 256 301ZM256 241C264.271 241 271 247.729 271 256C271 264.271 264.271 271 256 271C247.729 271 241 264.271 241 256C241 247.729 247.729 241 256 241Z" fill="#42BECF"/>
</svg>
