<svg width="470" height="470" viewBox="0 0 470 470" fill="none" xmlns="http://www.w3.org/2000/svg">
<path d="M208.958 228.542C271.968 228.542 323.229 177.28 323.229 114.271C323.229 51.262 271.968 0 208.958 0C145.949 0 94.688 51.262 94.688 114.271C94.688 177.28 145.949 228.542 208.958 228.542ZM208.958 15C263.696 15 308.229 59.533 308.229 114.271C308.229 169.009 263.696 213.542 208.958 213.542C154.22 213.542 109.687 169.009 109.687 114.271C109.687 59.533 154.22 15 208.958 15Z" fill="white"/>
<path d="M296.701 341.928H278.739C274.597 341.928 271.239 345.285 271.239 349.428L271.238 364.676L216.459 439.548V382.582L287.751 285.141C302.587 291.758 316.652 300.304 329.704 310.7C332.944 313.281 337.663 312.746 340.243 309.506C342.824 306.266 342.29 301.548 339.05 298.966C301.741 269.25 256.757 253.542 208.96 253.542C181.307 253.542 154.898 258.954 130.718 268.754C130.178 268.906 129.65 269.119 129.144 269.398C106.896 278.628 86.573 291.588 68.967 307.505C68.864 307.573 68.758 307.635 68.657 307.708C68.08 308.13 67.588 308.622 67.17 309.159C25.89 347.358 0 401.958 0 462.5C0 466.642 3.358 470 7.5 470C11.642 470 15 466.642 15 462.5C15 408.896 36.861 360.303 72.132 325.162L93.126 353.856C94.538 355.786 96.787 356.927 99.179 356.927H131.679V367.125C131.679 368.717 132.186 370.269 133.126 371.554L202.905 466.929C202.936 466.972 202.974 467.009 203.006 467.051C203.12 467.2 203.239 467.344 203.363 467.483C203.426 467.554 203.488 467.624 203.553 467.692C203.691 467.836 203.837 467.972 203.986 468.105C204.039 468.152 204.09 468.203 204.144 468.249C204.352 468.423 204.569 468.587 204.795 468.738C204.825 468.758 204.857 468.774 204.887 468.794C205.086 468.923 205.29 469.042 205.501 469.152C205.566 469.186 205.632 469.215 205.698 469.247C205.88 469.335 206.065 469.417 206.255 469.49C206.331 469.519 206.406 469.547 206.483 469.573C206.669 469.638 206.858 469.695 207.051 469.745C207.13 469.766 207.209 469.788 207.289 469.806C207.489 469.851 207.692 469.886 207.897 469.915C207.97 469.925 208.042 469.94 208.116 469.948C208.392 469.979 208.672 469.998 208.956 469.998C209.24 469.998 209.52 469.979 209.796 469.948C209.87 469.94 209.942 469.925 210.015 469.915C210.22 469.886 210.423 469.851 210.623 469.806C210.703 469.788 210.782 469.766 210.861 469.745C211.054 469.694 211.243 469.638 211.429 469.573C211.505 469.546 211.581 469.519 211.657 469.49C211.847 469.417 212.032 469.335 212.214 469.247C212.28 469.215 212.346 469.186 212.411 469.152C212.622 469.042 212.827 468.923 213.025 468.794C213.055 468.774 213.087 468.758 213.117 468.738C213.343 468.587 213.56 468.423 213.768 468.249C213.823 468.203 213.873 468.152 213.926 468.105C214.075 467.972 214.221 467.836 214.359 467.692C214.424 467.624 214.486 467.553 214.549 467.483C214.674 467.343 214.792 467.199 214.906 467.051C214.938 467.009 214.976 466.972 215.007 466.929L284.787 371.554C285.727 370.269 286.234 368.718 286.234 367.125V356.927H296.696C300.839 356.927 304.196 353.569 304.196 349.427C304.196 345.285 300.843 341.928 296.701 341.928V341.928ZM201.458 439.547L146.678 364.674V349.427C146.678 345.285 143.32 341.927 139.178 341.927H102.984L83.234 314.933C97.316 302.918 113.129 292.878 130.246 285.247L201.458 382.58V439.547ZM208.958 367.429L144.639 279.518C164.777 272.419 186.422 268.542 208.958 268.542C231.277 268.542 252.933 272.235 273.354 279.412L208.958 367.429Z" fill="white"/>
<path d="M193.959 144.209C198.101 144.209 201.459 140.851 201.459 136.709C201.459 132.573 204.824 129.209 208.959 129.209C213.095 129.209 216.459 132.573 216.459 136.709C216.459 140.851 219.817 144.209 223.959 144.209H265.607C278.565 144.209 289.107 133.667 289.107 120.709V97.46C289.107 84.502 278.565 73.96 265.607 73.96H152.311C139.353 73.96 128.811 84.502 128.811 97.46V120.709C128.811 133.667 139.353 144.209 152.311 144.209H193.959V144.209ZM143.811 120.709V97.46C143.811 92.773 147.624 88.96 152.311 88.96H265.607C270.294 88.96 274.107 92.773 274.107 97.46V120.709C274.107 125.396 270.294 129.209 265.607 129.209H230.174C227.079 120.479 218.737 114.209 208.959 114.209C199.181 114.209 190.839 120.479 187.744 129.209H152.31C147.624 129.209 143.811 125.396 143.811 120.709V120.709Z" fill="white"/>
<path d="M416.791 315.156V236.042C416.791 231.9 413.434 228.542 409.291 228.542H371.333C367.19 228.542 363.833 231.9 363.833 236.042V315.156C332.229 326.278 310.623 356.395 310.623 390.311C310.623 434.251 346.371 470 390.311 470C434.252 470 470 434.252 470 390.312C470 356.396 448.395 326.278 416.791 315.156ZM390.311 455C357.18 455 329.802 429.958 326.071 397.811H402.5C406.643 397.811 410 394.453 410 390.311C410 386.169 406.643 382.811 402.5 382.811H326.068C329.103 356.88 347.667 334.877 373.299 327.907C376.565 327.019 378.831 324.054 378.831 320.67V243.542H401.789V320.67C401.789 324.054 404.056 327.019 407.321 327.907C432.953 334.877 451.517 356.88 454.552 382.811H432.5C428.357 382.811 425 386.169 425 390.311C425 394.453 428.357 397.811 432.5 397.811H454.551C450.821 429.959 423.443 455 390.311 455V455Z" fill="white"/>
</svg>
