<svg width="512" height="512" viewBox="0 0 512 512" fill="none" xmlns="http://www.w3.org/2000/svg">
<g clip-path="url(#clip0)">
<path d="M10 478.433H212.603C218.126 478.433 222.603 473.956 222.603 468.433C222.603 462.91 218.126 458.433 212.603 458.433H20V214.249H79.952H79.956H180.844V232.27C180.862 237.628 181.404 243.022 182.532 248.264H76.979C66.867 248.264 58.64 256.491 58.64 266.603V409.018C58.64 419.13 66.867 427.357 76.979 427.357H437.489C447.601 427.357 455.828 419.13 455.828 409.018V266.603C455.828 256.491 447.601 248.264 437.489 248.264H330.682C331.808 243.029 332.372 237.629 332.372 232.274V214.249H432.044H432.048H492V458.433H300.848C295.326 458.433 290.848 462.91 290.848 468.433C290.848 473.956 295.326 478.433 300.848 478.433H502C507.522 478.433 512 473.956 512 468.433V204.249C512 204.15 511.988 204.055 511.985 203.957C511.982 203.862 511.989 203.767 511.983 203.671C511.922 202.622 510.338 177.595 496.556 144.327C483.904 113.788 458.066 70.083 406.82 35.293C405.163 34.168 403.206 33.566 401.203 33.566H342.828C338.447 33.566 334.581 36.42 333.282 40.604C332.64 42.673 332.704 44.829 333.366 46.781H178.638C179.3 44.832 179.365 42.678 178.725 40.611C177.429 36.423 173.556 33.567 169.172 33.567H110.797C108.794 33.567 106.838 34.169 105.18 35.294C53.934 70.084 28.096 113.789 15.444 144.328C1.661 177.595 0.077 202.623 0.017 203.671C0.012 203.766 0.018 203.861 0.015 203.956C0.012 204.054 0 204.15 0 204.249V468.433C0 473.956 4.477 478.433 10 478.433V478.433ZM355.436 66.782C367.005 77.323 382.117 93.076 394.796 112.905H117.204C129.883 93.076 144.995 77.322 156.563 66.782H355.436ZM200.85 232.51C200.85 232.43 200.844 232.35 200.844 232.27V187.097C200.844 181.26 205.594 176.511 211.431 176.511H301.786C307.548 176.511 312.369 181.332 312.369 187.094V232.27C312.369 262.62 286.953 288.039 256.608 288.039C225.939 288.038 200.978 263.15 200.85 232.51V232.51ZM78.64 407.357V348.334H435.828V407.357H78.64ZM435.828 268.264V328.335H78.64V268.264H189.954C202.784 291.93 227.85 308.038 256.609 308.038C285.368 308.038 310.433 291.93 323.263 268.264H435.828ZM332.372 194.249V187.096C332.372 178.663 328.941 171.015 323.402 165.477C317.863 159.938 310.216 156.507 301.783 156.507H211.431C194.565 156.507 180.844 170.228 180.844 187.093V187.096V194.249H90.776C92.933 173.317 97.085 152.033 106.125 132.905H405.875C414.908 152.022 419.067 173.322 421.222 194.249H332.372ZM398.096 53.567C443.276 85.067 466.333 123.929 477.758 151.211C485.283 169.181 488.893 184.616 490.587 194.249H441.343C439.174 171.214 434.593 147.52 424.917 126.35C412.278 98.696 392.961 74.146 370.727 53.568H398.096V53.567ZM113.904 53.567H141.274C117.742 75.346 96.845 101.922 84.729 131.83C76.722 151.594 72.651 173.085 70.659 194.248H21.415C25.931 168.714 44.057 102.249 113.904 53.567Z" fill="white"/>
<path d="M246 249.15V262.369C246 267.892 250.477 272.369 256 272.369C261.522 272.369 266 267.892 266 262.369V249.15C277.864 245.004 286.401 233.707 286.401 220.446C286.401 203.683 272.763 190.045 256 190.045C239.237 190.045 225.599 203.683 225.599 220.446C225.599 233.707 234.136 245.005 246 249.15V249.15ZM256 210.045C261.735 210.045 266.401 214.711 266.401 220.446C266.401 226.181 261.735 230.847 256 230.847C250.265 230.847 245.599 226.181 245.599 220.446C245.599 214.711 250.265 210.045 256 210.045Z" fill="white"/>
<path d="M253.41 477.67C257.342 479.308 262.03 478.188 264.807 474.96C267.532 471.792 267.984 467.143 265.931 463.506C261.345 455.382 248.743 457.804 247.344 466.964C246.658 471.45 249.236 475.93 253.41 477.67V477.67Z" fill="white"/>
</g>
<defs>
<clipPath id="clip0">
<rect width="512" height="512" fill="white"/>
</clipPath>
</defs>
</svg>
